<svg xmlns="http://www.w3.org/2000/svg" width="65" height="141" viewBox="0 0 65 141">
  <g id="Groupe_811" data-name="Groupe 811" transform="translate(-1093 -7098)" opacity="0.3">
    <circle id="Ellipse_31" data-name="Ellipse 31" cx="4" cy="4" r="4" transform="translate(1093 7136)" fill="#ed7d00"/>
    <circle id="Ellipse_31-2" data-name="Ellipse 31" cx="4" cy="4" r="4" transform="translate(1112 7136)" fill="#ed7d00"/>
    <circle id="Ellipse_31-3" data-name="Ellipse 31" cx="4" cy="4" r="4" transform="translate(1131 7136)" fill="#ed7d00"/>
    <circle id="Ellipse_34" data-name="Ellipse 34" cx="4" cy="4" r="4" transform="translate(1093 7098)" fill="#ed7d00"/>
    <circle id="Ellipse_31-4" data-name="Ellipse 31" cx="4" cy="4" r="4" transform="translate(1150 7136)" fill="#ed7d00"/>
    <circle id="Ellipse_33" data-name="Ellipse 33" cx="4" cy="4" r="4" transform="translate(1093 7117)" fill="#ed7d00"/>
    <circle id="Ellipse_32" data-name="Ellipse 32" cx="4" cy="4" r="4" transform="translate(1112 7117)" fill="#ed7d00"/>
    <circle id="Ellipse_31-5" data-name="Ellipse 31" cx="4" cy="4" r="4" transform="translate(1093 7155)" fill="#ed7d00"/>
    <circle id="Ellipse_31-6" data-name="Ellipse 31" cx="4" cy="4" r="4" transform="translate(1112 7155)" fill="#ed7d00"/>
    <circle id="Ellipse_31-7" data-name="Ellipse 31" cx="4" cy="4" r="4" transform="translate(1131 7155)" fill="#ed7d00"/>
    <circle id="Ellipse_31-8" data-name="Ellipse 31" cx="4" cy="4" r="4" transform="translate(1150 7155)" fill="#ed7d00"/>
    <circle id="Ellipse_31-9" data-name="Ellipse 31" cx="4" cy="4" r="4" transform="translate(1093 7174)" fill="#ed7d00"/>
    <circle id="Ellipse_31-10" data-name="Ellipse 31" cx="4" cy="4" r="4" transform="translate(1112 7174)" fill="#ed7d00"/>
    <circle id="Ellipse_31-11" data-name="Ellipse 31" cx="4" cy="4" r="4" transform="translate(1131 7174)" fill="#ed7d00"/>
    <circle id="Ellipse_31-12" data-name="Ellipse 31" cx="4" cy="4" r="4" transform="translate(1150 7174)" fill="#ed7d00"/>
    <circle id="Ellipse_31-13" data-name="Ellipse 31" cx="4" cy="4" r="4" transform="translate(1093 7193)" fill="#ed7d00"/>
    <circle id="Ellipse_31-14" data-name="Ellipse 31" cx="4" cy="4" r="4" transform="translate(1112 7193)" fill="#ed7d00"/>
    <circle id="Ellipse_31-15" data-name="Ellipse 31" cx="4" cy="4" r="4" transform="translate(1131 7193)" fill="#ed7d00"/>
    <circle id="Ellipse_37" data-name="Ellipse 37" cx="4" cy="4" r="4" transform="translate(1131 7212)" fill="#ed7d00"/>
    <circle id="Ellipse_31-16" data-name="Ellipse 31" cx="4" cy="4" r="4" transform="translate(1150 7193)" fill="#ed7d00"/>
    <circle id="Ellipse_35" data-name="Ellipse 35" cx="4" cy="4" r="4" transform="translate(1150 7212)" fill="#ed7d00"/>
    <circle id="Ellipse_36" data-name="Ellipse 36" cx="4" cy="4" r="4" transform="translate(1150 7231)" fill="#ed7d00"/>
  </g>
</svg>
