<svg id="Groupe_929" data-name="Groupe 929" xmlns="http://www.w3.org/2000/svg" width="593" height="283.587" viewBox="0 0 593 283.587">
  <path id="Path_765" data-name="Path 765" d="M608.5,270.168H463.092v-3H397.157v3H251.147A9.837,9.837,0,0,0,241.31,280h0V479.115a9.837,9.837,0,0,0,9.837,9.837H608.5a9.837,9.837,0,0,0,9.837-9.837V280a9.837,9.837,0,0,0-9.836-9.836Z" transform="translate(-145.284 -227.561)" fill="#3f3d56"/>
  <rect id="Rectangle_125" data-name="Rectangle 125" width="350.653" height="197.804" transform="translate(109.214 59.989)" fill="#e6e6e6"/>
  <rect id="Rectangle_130" data-name="Rectangle 130" width="321.031" height="170.977" transform="translate(124.085 70.449)" fill="#fff"/>
  <circle id="Ellipse_120" data-name="Ellipse 120" cx="3.597" cy="3.597" r="3.597" transform="translate(280.644 47.402)" fill="#6c63ff"/>
  <path id="Path_766" data-name="Path 766" d="M616.358,648.78H582.137v-2.466a.489.489,0,0,0-.489-.489H569.914a.489.489,0,0,0-.489.489h0v2.466h-7.333v-2.466a.489.489,0,0,0-.489-.489H549.87a.489.489,0,0,0-.489.489h0v2.466h-7.333v-2.466a.489.489,0,0,0-.489-.489H529.826a.489.489,0,0,0-.489.489h0v2.466H522v-2.466a.489.489,0,0,0-.489-.489H509.783a.489.489,0,0,0-.489.489h0v2.466H501.96v-2.466a.489.489,0,0,0-.489-.489H489.739a.489.489,0,0,0-.489.489h0v2.466h-7.333v-2.466a.489.489,0,0,0-.489-.489H469.7a.489.489,0,0,0-.489.489h0v2.466h-7.336v-2.466a.489.489,0,0,0-.489-.489H369.474a.489.489,0,0,0-.489.489h0v2.466h-7.333v-2.466a.489.489,0,0,0-.489-.489H349.43a.489.489,0,0,0-.489.489h0v2.466h-7.333v-2.466a.489.489,0,0,0-.489-.489H329.387a.489.489,0,0,0-.489.489h0v2.466h-7.333v-2.466a.489.489,0,0,0-.489-.489H309.343a.489.489,0,0,0-.489.489h0v2.466h-7.332v-2.466a.489.489,0,0,0-.489-.489H289.3a.489.489,0,0,0-.489.489h0v2.466h-7.333v-2.466a.489.489,0,0,0-.489-.489H269.254a.489.489,0,0,0-.489.489h0v2.466h-7.333v-2.466a.489.489,0,0,0-.489-.489H249.208a.489.489,0,0,0-.489.489h0v2.466H226.233A11.733,11.733,0,0,0,214.5,660.513v5.305a11.733,11.733,0,0,0,11.733,11.733H616.358a11.733,11.733,0,0,0,11.733-11.733v-5.305a11.733,11.733,0,0,0-11.733-11.733Z" transform="translate(-133.458 -394.583)" fill="#3f3d56"/>
  <rect id="Rectangle_126" data-name="Rectangle 126" width="141.962" height="149.228" transform="translate(213.619 82.441)" fill="#e6e6e6"/>
  <rect id="Rectangle_128" data-name="Rectangle 128" width="593" height="1.118" transform="translate(0 282.47)" fill="#e6e6e6"/>
  <path id="Path_776" data-name="Path 776" d="M1011.165,624c8.035,8.622,8.45,21.294,8.45,21.294s-12.612-1.307-20.646-9.928-8.45-21.294-8.45-21.294S1003.129,615.377,1011.165,624Z" transform="translate(-475.755 -380.576)" fill="#ed7d00"/>
  <path id="Path_777" data-name="Path 777" d="M1055.9,639.619c-8.622,8.035-21.294,8.45-21.294,8.45s1.307-12.612,9.928-20.647,21.294-8.45,21.294-8.45S1064.528,631.584,1055.9,639.619Z" transform="translate(-495.203 -382.739)" fill="#ed7d00"/>
  <path id="Path_778" data-name="Path 778" d="M1035.843,685.378h-31.712a3.242,3.242,0,0,1-2.917-1.825l-6.9-14.192a3.242,3.242,0,0,1,2.917-4.662h45.521a3.242,3.242,0,0,1,2.917,4.663l-6.9,14.193a3.242,3.242,0,0,1-2.917,1.825Z" transform="translate(-477.283 -402.908)" fill="#e5e5e5"/>
  <path id="Path_779" data-name="Path 779" d="M114.163,624c8.035,8.622,8.45,21.294,8.45,21.294s-12.612-1.307-20.647-9.928-8.45-21.294-8.45-21.294S106.128,615.377,114.163,624Z" transform="translate(-80.093 -380.576)" fill="#e5e5e5"/>
  <path id="Path_780" data-name="Path 780" d="M129.843,685.378H98.131a3.242,3.242,0,0,1-2.917-1.825l-6.9-14.192a3.242,3.242,0,0,1,2.917-4.662h45.521a3.242,3.242,0,0,1,2.917,4.662l-6.9,14.193a3.242,3.242,0,0,1-2.917,1.825Z" transform="translate(-77.652 -402.908)" fill="#e5e5e5"/>
  <circle id="Ellipse_127" data-name="Ellipse 127" cx="18.867" cy="18.867" r="18.867" transform="translate(282.862 86.951)" fill="#a0616a"/>
  <path id="Path_803" data-name="Path 803" d="M531.686,531.471l12.184-76.7a29.081,29.081,0,0,1,36.876-23.352h0A28.993,28.993,0,0,1,601.18,464.65l-12.743,68.5Z" transform="translate(-273.367 -299.495)" fill="#ed7d00"/>
  <path id="Path_804" data-name="Path 804" d="M609.146,607.375a7.725,7.725,0,0,0,1.341-11.768l12.595-24.39L608.9,572.73l-9.786,22.93a7.769,7.769,0,0,0,10.033,11.716Z" transform="translate(-302.208 -361.674)" fill="#a0616a"/>
  <path id="Path_805" data-name="Path 805" d="M617.353,538.666a3.462,3.462,0,0,1-1.864-.884l-4.819-4.453a3.468,3.468,0,0,1-.838-3.882l9.631-22.829L618.1,461.511a11.136,11.136,0,1,1,22.067,3.01h0l2.336,28.355a35.624,35.624,0,0,1-6.866,24.118l-15.019,20.3a3.46,3.46,0,0,1-2.454,1.385A3.421,3.421,0,0,1,617.353,538.666Z" transform="translate(-307.718 -309.035)" fill="#ed7d00"/>
  <path id="Path_806" data-name="Path 806" d="M414.852,359.971a7.725,7.725,0,0,0,10.313,5.824l17.55,21.108,4.136-13.652-17.3-17.951a7.769,7.769,0,0,0-14.7,4.671Z" transform="translate(-221.773 -264.432)" fill="#a0616a"/>
  <path id="Path_807" data-name="Path 807" d="M439.169,379.44a3.462,3.462,0,0,1,1.541-1.372l5.98-2.7a3.468,3.468,0,0,1,3.9.742l17.267,17.769,42.07,16.329a11.136,11.136,0,0,1-11.376,19.147h0l-27.021-8.9A35.623,35.623,0,0,1,452,404.723l-12.841-21.747a3.46,3.46,0,0,1-.319-2.8,3.425,3.425,0,0,1,.332-.736Z" transform="translate(-232.342 -275.152)" fill="#ed7d00"/>
  <path id="Path_808" data-name="Path 808" d="M624.963,502.685l-.768,24.581-14.151,24.592,11.816-27.4Z" transform="translate(-307.93 -331.445)" opacity="0.1"/>
  <path id="Path_696" data-name="Path 696" d="M579.939,354.787c1.946,2.3,5.239,2.953,8.277,3.219a77.914,77.914,0,0,0,21.171-1.729c.43,4.171-.743,8.668,1.714,12.1a56.164,56.164,0,0,0,2-12.734,12.2,12.2,0,0,0-.705-5.454,5.016,5.016,0,0,0-4.273-3.15A10.71,10.71,0,0,1,612.9,345l-5.969-3,1.533-1.574-10.807-.661,3.13-1.989a67.879,67.879,0,0,0-14.219-.447c-2.2.162-4.5.472-6.289,1.748s-2.815,3.812-1.707,5.685a8.255,8.255,0,0,0-6.291,4.992,13.322,13.322,0,0,0-.477,6.406,45.4,45.4,0,0,0,2.381,10.071" transform="translate(-290.987 -258.426)" fill="#2f2e41"/>
  <path id="Path_138" data-name="Path 138" d="M584.2,245.4,412.278,285.089a3.271,3.271,0,0,1-3.919-2.449l-9.846-42.646a3.271,3.271,0,0,1,2.449-3.919l171.919-39.691a3.271,3.271,0,0,1,3.919,2.449l9.845,42.646A3.271,3.271,0,0,1,584.2,245.4Z" transform="translate(-214.589 -196.301)" fill="#fff"/>
  <path id="Path_138-2" data-name="Path 138" d="M584.2,245.4,412.278,285.089a3.271,3.271,0,0,1-3.919-2.449l-9.846-42.646a3.271,3.271,0,0,1,2.449-3.919l171.919-39.691a3.271,3.271,0,0,1,3.919,2.449l9.845,42.646A3.271,3.271,0,0,1,584.2,245.4Zm-182.94-8.048a1.963,1.963,0,0,0-1.469,2.351l9.846,42.646a1.962,1.962,0,0,0,2.351,1.469L583.9,244.125a1.962,1.962,0,0,0,1.469-2.351l-9.846-42.646a1.962,1.962,0,0,0-2.351-1.469Z" transform="translate(-214.589 -196.301)" fill="#e6e6e6"/>
  <path id="Path_139" data-name="Path 139" d="M508.861,250.9a2.218,2.218,0,0,0,.99,4.325l.008,0,101.9-23.524a2.218,2.218,0,1,0-1-4.323Z" transform="translate(-262.539 -209.982)" fill="#e6e6e6"/>
  <path id="Path_140" data-name="Path 140" d="M514.218,284.678a2.218,2.218,0,1,0,.991,4.325l.007,0,43.846-10.123a2.218,2.218,0,0,0-.99-4.325l-.008,0Z" transform="translate(-264.902 -230.793)" fill="#e6e6e6"/>
  <g id="Group_45" data-name="Group 45" transform="translate(205.156 43.041)">
    <circle id="Ellipse_18" data-name="Ellipse 18" cx="13.31" cy="13.31" r="13.31" fill="#ed7d00"/>
    <path id="Path_395" data-name="Path 395" d="M453.476,297.7a2.062,2.062,0,0,1-1.3-.123l-.026-.011-5.355-2.431a2.077,2.077,0,1,1,1.72-3.781l3.47,1.58,4.868-10.7A2.075,2.075,0,0,1,459.6,281.2h0l-.029.07.031-.07a2.077,2.077,0,0,1,1.029,2.749l-5.726,12.584a2.076,2.076,0,0,1-1.427,1.16Z" transform="translate(-440.541 -276.71)" fill="#fff"/>
  </g>
</svg>
