<svg id="Groupe_915" data-name="Groupe 915" xmlns="http://www.w3.org/2000/svg" width="478.331" height="385.659" viewBox="0 0 478.331 385.659">
  <path id="Tracé_146" data-name="Tracé 146" d="M595.784,674.123a22.48,22.48,0,0,0-13.414-9.289c-4.909-1.106-9.956-.918-14.945-.879l-63.09.487c-5.4.042-10.584,4.723-10.333,10.333.249,5.563,4.541,10.378,10.333,10.333l55.443-.427c4.357-.034,8.716-.112,13.074-.1.979,0,1.953.055,2.93.066.237,0,.408,0,.529,0l.1.028c.51.14,1.033.237,1.546.37-.18.005.333.325.59.433.035.07.111.193.237.384.176.329.7,1.33.717,1.3a46.348,46.348,0,0,1,1.929,6.066c1.2,4.551,1.465,5.5,1.637,9.772.219,5.394,4.6,10.59,10.333,10.333,5.411-.242,10.567-4.548,10.333-10.333C603.332,693.247,601.621,682.3,595.784,674.123Z" transform="translate(-323.287 -332.94)" fill="#ffa116"/>
  <path id="Tracé_147" data-name="Tracé 147" d="M476.176,616.507c-1.185-7.181-2.347-14.367-3.555-21.544-1.226-7.281-3.729-13.948-9.4-18.727-1.514-1.277-3.084-2.469-4.66-3.657-.554-.418-1.108-.836-1.656-1.263l-.082-.064-.23-.2c-2.362-2-4.643-4.086-6.817-6.305q-2.9-2.956-5.538-6.164-.66-.8-1.3-1.617c-.074-.094-.471-.607-.733-.942-.243-.335-.688-.941-.763-1.047q-.752-1.063-1.476-2.145a100.824,100.824,0,0,1-8.516-15.574q-.353-.808-.69-1.626l-.242-.664c-.479-1.316-.956-2.631-1.394-3.963q-1.395-4.244-2.4-8.613-.5-2.157-.893-4.337-.2-1.121-.383-2.246c-.02-.125-.136-.934-.2-1.391-.05-.46-.144-1.273-.157-1.4q-.114-1.134-.2-2.271-.2-2.557-.268-5.123-.119-4.56.163-9.12c.107-1.708.26-3.411.448-5.112l.028-.262c.011-.076.025-.162.04-.27.139-.94.285-1.878.449-2.813a102.861,102.861,0,0,1,2.415-10.535q.7-2.46,1.526-4.879.367-1.074.757-2.14c-.017.046.763-1.948.774-2.015,3.1-7.316,8.161-13.986,8.168-22.3,0-5.627-4.756-11.018-10.333-10.757a10.737,10.737,0,0,0-10.333,10.757c0,.126,0,.234,0,.339-.052.175-.1.321-.135.451-.6,1.312-1.344,2.559-2.006,3.839-1.815,3.5-3.364,7.12-4.836,10.79a103.217,103.217,0,0,0-5.508,18.488,117.6,117.6,0,0,0-.625,42A108.391,108.391,0,0,0,441.2,585.605c1.594,1.363,3.227,2.681,4.875,3.972.682.534,1.37,1.059,2.061,1.58.327.246,1.68,1.314,1.085.8a6.582,6.582,0,0,1,2.148,2.447c.048.186.113.438.2.782.232.908.452,1.813.635,2.733,1.6,8.041,2.71,16.217,4.045,24.31.918,5.561,7.764,9.18,12.711,7.513C474.717,627.8,477.159,622.465,476.176,616.507Z" transform="translate(-291.419 -252.007)" fill="#ffa116"/>
  <path id="Tracé_148" data-name="Tracé 148" d="M559.857,605.781a16.387,16.387,0,0,1-16.429-16.307V577.687c-12.341,1.381-54.6,1.061-66.712-.885V589a16.43,16.43,0,1,1-32.859,0V565.049a105.395,105.395,0,0,1,43.451-197.032c2.859-.224,5.735-.338,8.55-.338,9.915,0,54.647,1.532,65.871,4.761l25.592-25.394a2.687,2.687,0,0,1,2.938-.586,2.648,2.648,0,0,1,1.669,2.484v4.038l4.983-4.935a2.68,2.68,0,0,1,2.936-.587,2.649,2.649,0,0,1,1.671,2.485v45.119a105.11,105.11,0,0,1-25.232,172.989v21.421A16.387,16.387,0,0,1,559.857,605.781Zm-15.138-29.558v13.252a15.138,15.138,0,1,0,30.276,0V567.238l.369-.175a104.915,104.915,0,0,0,42.966-37.574,103.539,103.539,0,0,0-17.888-133.656l-.215-.193v-45.7a1.358,1.358,0,0,0-.867-1.289,1.388,1.388,0,0,0-1.538.306l-7.186,7.117v-7.135a1.358,1.358,0,0,0-.867-1.289,1.391,1.391,0,0,0-1.54.308L562.089,373.9l-.371-.116c-10.434-3.266-55.87-4.814-65.86-4.814-2.781,0-5.623.112-8.448.334a104.669,104.669,0,0,0-56.984,22.439,103.64,103.64,0,0,0,14.39,172.36l.333.184V589a15.138,15.138,0,1,0,30.276,0V575.256l.765.144c10.885,2.048,56.722,2.371,67.8.918Z" transform="translate(-286.315 -220.424)" fill="#3f3d56"/>
  <path id="Tracé_149" data-name="Tracé 149" d="M474.933,270.431l-71.516,21.492a8.965,8.965,0,0,0,5.16,17.172l62.585-18.812,1.311-.394a43.6,43.6,0,0,1,5.354-19.284,3.981,3.981,0,0,0-1.292-.336A4.111,4.111,0,0,0,474.933,270.431Z" transform="translate(-288.943 -193.504)" fill="#8f8f8f"/>
  <path id="Tracé_150" data-name="Tracé 150" d="M408.065,314.553a4.529,4.529,0,0,1-4.287-3.1l-4.472-13.495a4.52,4.52,0,0,1,2.869-5.713l58.207-19.29a4.52,4.52,0,0,1,5.713,2.869l4.472,13.495a4.5,4.5,0,0,1-2.708,5.657q-.081.03-.163.057l-58.206,19.29a4.523,4.523,0,0,1-1.426.232Z" transform="translate(-289.668 -194.38)" fill="#2f2e41"/>
  <path id="Tracé_151" data-name="Tracé 151" d="M557,233.42a45.227,45.227,0,0,0-45.187,43.818c-.013.459-.019.923-.019,1.388A45.206,45.206,0,1,0,557,233.42Zm0,89.121a43.961,43.961,0,0,1-43.915-43.915q0-.9.039-1.782A43.913,43.913,0,1,1,557,322.541Z" transform="translate(-329.591 -180.459)" fill="#3f3d56"/>
  <path id="Tracé_152" data-name="Tracé 152" d="M598.995,282.522a38.1,38.1,0,1,1-76.2,0c0-1.208.058-2.4.168-3.571a38.1,38.1,0,0,1,76.037,3.571Z" transform="translate(-333.487 -184.355)" fill="#e6e6e6"/>
  <path id="Tracé_153" data-name="Tracé 153" d="M586.124,293.579a9.072,9.072,0,0,0-3.532-2.8,34.318,34.318,0,0,0-5.309-1.744V278.668a15.109,15.109,0,0,1,7.549,3.442l2.106-4.488a13.924,13.924,0,0,0-4.108-2.538,20.187,20.187,0,0,0-5.211-1.337V268.49h-4.876V273.8a13.35,13.35,0,0,0-5.328,1.789,10.59,10.59,0,0,0-3.61,3.539,8.893,8.893,0,0,0-1.285,4.708A8.048,8.048,0,0,0,564,288.872a9.371,9.371,0,0,0,3.681,2.919,34.031,34.031,0,0,0,5.4,1.789v9.939a16.138,16.138,0,0,1-8.983-3.584l-2.105,4.495a15.874,15.874,0,0,0,4.8,2.725,22.062,22.062,0,0,0,5.948,1.24v5.212h4.876V308.3a12.618,12.618,0,0,0,7.239-3.319,8.776,8.776,0,0,0,2.7-6.523,7.785,7.785,0,0,0-1.434-4.876Zm-13.045-5.638a9.362,9.362,0,0,1-3.249-1.744,3.436,3.436,0,0,1-1.149-2.7,4.343,4.343,0,0,1,1.175-3.106,5.943,5.943,0,0,1,3.223-1.673Zm7.265,13.743a5.527,5.527,0,0,1-3.061,1.6v-8.55a8.55,8.55,0,0,1,3.061,1.531,3.008,3.008,0,0,1,1.053,2.389,4.394,4.394,0,0,1-1.053,3.035Z" transform="translate(-347.371 -192.881)" fill="#ed7d00"/>
  <path id="Tracé_154" data-name="Tracé 154" d="M412.392,401.04a4.536,4.536,0,0,1-4.375-3.368l-2.435-9.216a4.523,4.523,0,0,1,3.213-5.522l76.813-20.3a4.531,4.531,0,0,1,5.522,3.22l2.063,7.808-.386.03a103.434,103.434,0,0,0-54.317,20.582l-.112.054-24.838,6.561A4.5,4.5,0,0,1,412.392,401.04Z" transform="translate(-291.919 -226.175)" fill="#2f2e41"/>
  <path id="Tracé_155" data-name="Tracé 155" d="M370.476,463.076a63.359,63.359,0,0,1-25.265-9.553,61.7,61.7,0,0,1-10.445-8.543c-3.118-3.18-6.1-6.795-7.645-11.03a16.338,16.338,0,0,1,.214-12.121,15.715,15.715,0,0,1,8.5-8.476,16.225,16.225,0,0,1,12.306-.018,11.036,11.036,0,0,1,4.5,3.62,7.384,7.384,0,0,1,1.169,2.427,4.956,4.956,0,0,1,.058,2.428,5.823,5.823,0,0,1-3.083,3.7,15.543,15.543,0,0,1-5.265,1.606c-1.847.252-4.5.481-5.985-1a3.015,3.015,0,0,1-.706-1.04,2.011,2.011,0,0,1-.111-.942c-.022.14.09-.305.083-.287-.023.066-.125.226.019-.02a2.188,2.188,0,0,1,.151-.234c-.049.063-.157.169.036-.012a1.267,1.267,0,0,1,.59-.365c.089-.026.18-.047.27-.071.228-.062-.227,0,.006,0,.09,0,.181,0,.271,0,.229-.01-.226-.062-.006-.007.085.021.169.042.253.069.182.057-.129-.134-.006.009.145.168-.152-.163.013,0a2.978,2.978,0,0,1,.231.255,1.524,1.524,0,0,0,2.141,0,1.55,1.55,0,0,0,0-2.141c-1.493-1.85-4.441-1.393-5.951.171-1.926,1.995-1.163,5.156.71,6.9,2.121,1.97,5.124,2.107,7.852,1.777a19.257,19.257,0,0,0,6.632-1.874,9.3,9.3,0,0,0,4.536-4.9,8.508,8.508,0,0,0-.682-6.955c-2.408-4.528-7.4-6.849-12.325-7.251a19.253,19.253,0,0,0-14.091,4.626,19.474,19.474,0,0,0-6.386,12.965c-.43,5.164,1.573,10.179,4.494,14.346A54.654,54.654,0,0,0,338.4,452.318a66.178,66.178,0,0,0,27.648,13.039q1.8.372,3.626.638a1.564,1.564,0,0,0,1.862-1.057,1.525,1.525,0,0,0-1.057-1.862Z" transform="translate(-262.725 -242.69)" fill="#3f3d56"/>
  <path id="Tracé_156" data-name="Tracé 156" d="M593.655,390.767q-19.8-.279-39.48,1.005c-4.484.293-8.364,1.878-8.364,4.541,0,2.227,3.849,4.836,8.364,4.541q19.668-1.284,39.48-1.005C604.423,400,604.417,390.918,593.655,390.767Z" transform="translate(-341.641 -236.173)" fill="#ccc"/>
  <path id="Tracé_157" data-name="Tracé 157" d="M570.518,399.026c-1.427,0-34.942-.053-34.942-4.683s33.515-4.682,34.942-4.682,34.942.053,34.942,4.682S571.945,399.026,570.518,399.026Zm-33.631-4.683c.917,1.4,13.237,3.391,33.631,3.391s32.714-1.988,33.631-3.391c-.917-1.4-13.237-3.391-33.631-3.391s-32.714,1.987-33.632,3.391Z" transform="translate(-338.016 -235.799)" fill="#3f3d56"/>
  <path id="Tracé_158" data-name="Tracé 158" d="M754.267,550.706c7.419-.206,16.653-.464,23.766-5.66a18.252,18.252,0,0,0,7.182-13.629,12.277,12.277,0,0,0-4.175-10.084c-3.715-3.14-9.141-3.876-14.987-2.158l6.058-44.269-4.447-.609-7.122,52.043,3.713-1.7c4.305-1.975,10.215-2.979,13.887.124a7.889,7.889,0,0,1,2.587,6.5,13.8,13.8,0,0,1-5.344,10.161c-5.536,4.044-12.9,4.565-21.243,4.8Z" transform="translate(-415.431 -265.777)" fill="#ffa116"/>
  <rect id="Rectangle_679" data-name="Rectangle 679" width="24.174" height="4.488" transform="translate(302.368 212.948)" fill="#3f3d56"/>
  <path id="Tracé_159" data-name="Tracé 159" d="M429.863,437.281a4.529,4.529,0,0,1-4.459-3.822l-1.476-9.417a4.525,4.525,0,0,1,3.766-5.166l78.485-12.3a4.525,4.525,0,0,1,5.166,3.766l1.476,9.417a4.525,4.525,0,0,1-3.766,5.166l-78.486,12.3A4.583,4.583,0,0,1,429.863,437.281Z" transform="translate(-298.452 -241.772)" fill="#2f2e41"/>
  <circle id="Ellipse_43" data-name="Ellipse 43" cx="32.936" cy="32.936" r="32.936" transform="translate(65.994 19.28)" fill="#ffa116"/>
  <path id="Tracé_160" data-name="Tracé 160" d="M409.573,233.71a7.811,7.811,0,0,0,2.82-1.728,5.253,5.253,0,0,0,1.456-4.187,3.534,3.534,0,0,0-1.622-2.689,4.57,4.57,0,0,0-4.357.032l-.184-12.857-1.291.018.216,15.114.983-.645c1.14-.746,2.778-1.288,3.957-.563a2.269,2.269,0,0,1,1.016,1.737,3.969,3.969,0,0,1-1.083,3.122c-1.4,1.389-3.472,1.855-5.838,2.28l.229,1.271A21.289,21.289,0,0,0,409.573,233.71Z" transform="translate(-291.995 -172.972)" fill="#2f2e41"/>
  <rect id="Rectangle_680" data-name="Rectangle 680" width="6.956" height="1.291" transform="matrix(0.989, -0.15, 0.15, 0.989, 122.115, 39.448)" fill="#2f2e41"/>
  <rect id="Rectangle_681" data-name="Rectangle 681" width="6.956" height="1.291" transform="matrix(0.989, -0.15, 0.15, 0.989, 100.405, 42.735)" fill="#2f2e41"/>
  <path id="Tracé_161" data-name="Tracé 161" d="M400.073,392.664a5.832,5.832,0,0,1-5.447-3.781l-22.709-60.815a30.05,30.05,0,0,1,17.62-38.621L408,282.553a5.785,5.785,0,0,1,4.442.154,5.7,5.7,0,0,1,3.019,3.22l42.065,79.423a5.813,5.813,0,0,1-3.395,7.516L402.1,392.3a5.8,5.8,0,0,1-2.031.369Z" transform="translate(-279.377 -197.731)" fill="#2f2e41"/>
  <path id="Tracé_162" data-name="Tracé 162" d="M420.158,284.428,461.9,340.242l-28.242-55.228a5.217,5.217,0,0,0-6.683-3.13Z" transform="translate(-297.135 -197.514)" fill="#e6e6e6"/>
  <path id="Tracé_163" data-name="Tracé 163" d="M477.017,339.175l-74.523-4.8a8.963,8.963,0,0,1,1.152-17.89l74.523,4.8a4.2,4.2,0,0,1,3.919,4.459l-.613,9.512A4.2,4.2,0,0,1,477.017,339.175Z" transform="translate(-287.908 -209.874)" fill="#8f8f8f"/>
  <path id="Tracé_164" data-name="Tracé 164" d="M455.61,340.364q-.148,0-.3-.009h0l-61.194-3.942a4.52,4.52,0,0,1-4.221-4.8l1.046-16.247a4.52,4.52,0,0,1,4.8-4.22l61.194,3.941a4.526,4.526,0,0,1,4.221,4.8l-1.046,16.248a4.533,4.533,0,0,1-2.936,3.946,4.473,4.473,0,0,1-1.57.284Z" transform="translate(-286.414 -207.985)" fill="#2f2e41"/>
  <path id="Tracé_165" data-name="Tracé 165" d="M361.27,181.727c4.333-3.726,10.283-.393,15.252-.976,4.754-.558,8.508-4.823,9.467-9.353,1.119-5.285-1.625-10.58-5.668-13.876-4.429-3.609-10.3-4.645-15.868-3.978-6.379.765-12.213,3.739-17.448,7.335a78.692,78.692,0,0,0-13.847,11.734c-3.714,4.1-6.861,8.991-7.866,14.511-.913,5.016-.216,10.575,2.75,14.825a15.632,15.632,0,0,0,6.119,5.041c2.543,1.249,5.255,2.141,7.719,3.553,3.725,2.135,7.345,6.561,6.178,11.167a6.325,6.325,0,0,1-1.438,2.706c-.833.925-2.337-.3-1.5-1.225,1.468-1.629,1.41-3.8.628-5.748a10.509,10.509,0,0,0-4.671-5.137c-2.579-1.474-5.426-2.384-8.069-3.727a17.451,17.451,0,0,1-6.4-5.3c-3.163-4.4-4.11-10.117-3.392-15.41.776-5.727,3.719-10.932,7.408-15.293A76.262,76.262,0,0,1,344.6,160.2c5.405-3.873,11.377-7.147,17.986-8.331,5.728-1.027,11.938-.395,16.947,2.727,4.676,2.914,8.261,7.926,8.618,13.527a14.36,14.36,0,0,1-6.7,12.879,12.335,12.335,0,0,1-7.369,1.707c-2.752-.176-5.507-1.019-8.277-.785a5.774,5.774,0,0,0-3.4,1.375c-.947.814-2.075-.762-1.136-1.57Z" transform="translate(-262.717 -151.412)" fill="#2f2e41"/>
  <path id="Tracé_166" data-name="Tracé 166" d="M707.225,747.745H230.431a.769.769,0,0,1,0-1.538H707.225a.769.769,0,1,1,0,1.538Z" transform="translate(-229.662 -362.086)" fill="#3f3d56"/>
</svg>
