<svg xmlns="http://www.w3.org/2000/svg" width="539.668" height="417.758" viewBox="0 0 539.668 417.758">
  <g id="Groupe_924" data-name="Groupe 924" transform="translate(0)">
    <path id="Tracé_10" data-name="Tracé 10" d="M340.579,165.353A198.95,198.95,0,0,1,275.318,154.4c-28.139-9.729-51.192-23.149-68.516-39.886-32.771-31.66-59.639-36.432-76.4-34.861-18.148,1.7-28.712,10.995-28.816,11.088l-.722-.8c.107-.1,10.888-9.6,29.367-11.353,10.836-1.028,22.169.763,33.683,5.323,14.359,5.687,29.043,15.723,43.644,29.83,17.211,16.627,40.129,29.965,68.118,39.642,51.382,17.765,109.292,13.464,158.881-11.8C450.97,133.21,467.2,127.5,482.783,124.6c19.653-3.653,38.291-2.8,55.4,2.518,37.6,11.7,63.279,11.077,78.2,8.5,16.1-2.783,23.407-8.353,23.478-8.409l.664.853c-.3.235-7.593,5.792-23.959,8.621-15.041,2.6-40.905,3.23-78.707-8.531-38.275-11.906-77.04,1.25-102.819,14.384a207.524,207.524,0,0,1-78.73,22.211Q348.418,165.353,340.579,165.353Z" transform="translate(-100.859 -70.361)" fill="#ffca4b"/>
    <circle id="Ellipse_4" data-name="Ellipse 4" cx="10.957" cy="10.957" r="10.957" transform="translate(226.582 86.496)" fill="#ff8700"/>
    <circle id="Ellipse_5" data-name="Ellipse 5" cx="10.957" cy="10.957" r="10.957" transform="translate(396.329 42.707)" fill="#ff8700"/>
    <circle id="Ellipse_6" data-name="Ellipse 6" cx="10.957" cy="10.957" r="10.957" transform="translate(43.319 0)" fill="#ff8700"/>
    <path id="Tracé_11" data-name="Tracé 11" d="M685.6,458.132V564h16.645V467.453h66.581V564h16.645V352.269H768.829c-5.516,0-13.982,28.727-13.982,57.592,0,21.758,2.541,40.4,6.154,48.271Zm83.226,0h-.162c.054-.118.108-.243.162-.367Z" transform="translate(-369.492 -196.223)" fill="#3f3d56"/>
    <path id="Tracé_12" data-name="Tracé 12" d="M778.681,255.342h0c-13.663,0-24.739,12.292-24.739,27.455v19.265h5.925l3.43-7.138-.858,7.138h38.083l3.118-6.489-.78,6.489h4.288V286.935C807.149,269.487,794.4,255.342,778.681,255.342Z" transform="translate(-400.887 -151.694)" fill="#2f2e41"/>
    <path id="Tracé_13" data-name="Tracé 13" d="M676.52,488.168l-15.19,6.456-52.784,42.91a15.535,15.535,0,0,0-3.418,8.354c-.38,4.937-16.329,30.759-10.633,34.177s26.2,13.671,27.341,6.835,7.215-36.075,7.215-36.075l50.885-45.569Z" transform="translate(-327.074 -258.655)" fill="#2f2e41"/>
    <path id="Tracé_14" data-name="Tracé 14" d="M604.28,658.975l-6.456,18.987s6.835,7.215,3.418,13.291v20.886h-5.316l-1.519-11.013s-6.055,10.873-9.114,11.013c-6.412.292-19.108,2.572-19.488-.845s9.614-6.749,9.614-6.749l10.633-29.24,4.557-17.848Z" transform="translate(-314.452 -336.427)" fill="#2f2e41"/>
    <path id="Tracé_15" data-name="Tracé 15" d="M741.046,463.546s3.418,33.417-6.456,39.493-53.543,25.443-53.543,25.443,18.607,17.468,14.81,21.645-20.886,15.569-23.164,13.291-27.721-29.62-24.683-38.354S693.2,487.849,693.2,487.849L698.136,470l1.519-14.43L715.6,445.319Z" transform="translate(-352.106 -238.97)" fill="#2f2e41"/>
    <circle id="Ellipse_7" data-name="Ellipse 7" cx="15.831" cy="15.831" r="15.831" transform="translate(355.711 115.112)" fill="#ffb9b9"/>
    <path id="Tracé_16" data-name="Tracé 16" d="M795.35,317.825s-.76,14.43,11.012,18.987-29.24,34.177-29.24,34.177V337.951s5.317-5.7,0-14.43Z" transform="translate(-411.537 -180.399)" fill="#ffb9b9"/>
    <path id="Tracé_17" data-name="Tracé 17" d="M839.439,443.211l-3.038,14.81-9.114,50.885s7.595,21.645-2.658,21.265-5.316-23.544-5.316-23.544l5.316-42.151V448.148Z" transform="translate(-430.373 -238.002)" fill="#ffb9b9"/>
    <path id="Tracé_18" data-name="Tracé 18" d="M716.056,429.865l-3.418,13.291L697.069,480.75s-10.633,17.848-1.9,17.468S703.9,480.75,703.9,480.75l17.848-30.379V433.283Z" transform="translate(-372.305 -231.871)" fill="#ffb9b9"/>
    <path id="Tracé_19" data-name="Tracé 19" d="M721.488,634.978,734.02,646.75s8.734-1.9,12.152,8.354,5.7,16.708,5.7,16.708l-4.557,2.658-5.7-7.975s-3.417,14.43-6.835,15.569-20.506,8.734-18.987,0l8.354-12.152s1.139-13.671-2.278-14.81-12.532-12.531-12.532-12.531Z" transform="translate(-380.395 -326.1)" fill="#2f2e41"/>
    <path id="Tracé_20" data-name="Tracé 20" d="M784.62,485.538s-35.7-12.911-37.974-11.772a17.127,17.127,0,0,1-5.349,1.388l.032-5.186s11.772-4.177,18.227-1.519,26.2,14.43,26.2,14.43Z" transform="translate(-395.078 -249.19)" fill="#3f3d56"/>
    <path id="Tracé_21" data-name="Tracé 21" d="M762.918,377.747s10.253-11.772,13.291-18.987a18.643,18.643,0,0,1,9.856-9.691s22.8,5.134,22.422,14.248-14.43,23.164-14.43,23.164,1.9,50.505-8.354,49.746a21.99,21.99,0,0,1-4.557-9.114c-1.139-5.316-36.455-11.012-36.455-11.012s-3.038,5.316-3.418,3.038,3.038-58.1,3.038-58.1l18.109-11.97Z" transform="translate(-395.054 -194.753)" fill="#d0cde1"/>
    <path id="Tracé_22" data-name="Tracé 22" d="M844.445,368.069l.254.143a5.239,5.239,0,0,1,2.675,4.569l0,28.182a5.28,5.28,0,0,0,1.878,4.019c1.463,1.244,2.819,3.037.02,3.97-4.557,1.519-22.4,9.114-22.784,6.456s-1.139-5.7,0-5.7c.892,0,6.206-27.23,10.475-38.873a5.24,5.24,0,0,1,7.485-2.769Z" transform="translate(-433.937 -203.174)" fill="#d0cde1"/>
    <path id="Tracé_23" data-name="Tracé 23" d="M742.146,368.752l-5.316,1.519-6.076,26.2s-7.215,1.519-4.937,4.177,11.772,9.493,11.772,9.493Z" transform="translate(-387.762 -203.795)" fill="#d0cde1"/>
    <path id="Tracé_24" data-name="Tracé 24" d="M789.192,264.892a12.975,12.975,0,0,0-10.237-5.224h-.485c-9.365,0-16.956,8.474-16.956,18.927h3.138l.507-3.857.743,3.857h18.61l1.559-3.263-.39,3.263h3.661q2.563,12.727-7.364,25.454h6.237l3.118-6.527-.78,6.527h11.889l2.339-15.011C804.78,277.8,798.248,268.263,789.192,264.892Z" transform="translate(-404.366 -153.682)" fill="#2f2e41"/>
    <path id="Tracé_25" data-name="Tracé 25" d="M201.4,493.872c3.995-8.7,6.8-29.315,6.8-53.372,0-31.916-9.361-63.678-15.459-63.678h-18.4v234.1h18.4V504.178H266.36V610.922h18.4V493.872Zm-8.655-.405c.06.136.119.275.179.405h-.179Z" transform="translate(-134.616 -207.503)" fill="#3f3d56"/>
    <path id="Tracé_26" data-name="Tracé 26" d="M359.4,514.342s22.164,9.19,15.137,14.6-21.624-6.487-21.083-8.109-2.162-5.406-2.162-5.406Z" transform="translate(-215.909 -270.68)" fill="#9f616a"/>
    <path id="Tracé_27" data-name="Tracé 27" d="M327.995,380.342l7.028,6.487,1.622,18.921,5.406,20s9.19,18.921,7.568,22.705,1.622,4.865,1.622,4.865l-12.434,4.865s-13.515-15.137-13.515-18.38S327.995,380.342,327.995,380.342Z" transform="translate(-203.964 -209.12)" fill="#575a88"/>
    <path id="Tracé_28" data-name="Tracé 28" d="M327.995,380.342l7.028,6.487,1.622,18.921,5.406,20s9.19,18.921,7.568,22.705,1.622,4.865,1.622,4.865l-12.434,4.865s-13.515-15.137-13.515-18.38S327.995,380.342,327.995,380.342Z" transform="translate(-203.964 -209.12)" opacity="0.1"/>
    <path id="Tracé_29" data-name="Tracé 29" d="M450.519,736.207s-2.7,12.434-3.244,13.515,10.271,4.865,10.271,4.865l12.974-9.19s-5.406-11.893-5.406-14.055Z" transform="translate(-259.995 -370.37)" fill="#575a88"/>
    <path id="Tracé_30" data-name="Tracé 30" d="M290.079,516.342l3.784,4.325s78.386,9.731,80.008,24.867,12.974,86.5,6.487,88.658-23.246,10.271-23.246,5.947-10.812-63.79-8.65-74.6c0,0-93.523-11.893-95.686-25.408s2.162-19.461,2.162-19.461Z" transform="translate(-170.373 -271.598)" fill="#2f2e41"/>
    <path id="Tracé_31" data-name="Tracé 31" d="M290.079,516.342l3.784,4.325s78.386,9.731,80.008,24.867,12.974,86.5,6.487,88.658-23.246,10.271-23.246,5.947-10.812-63.79-8.65-74.6c0,0-93.523-11.893-95.686-25.408s2.162-19.461,2.162-19.461Z" transform="translate(-170.373 -271.598)" opacity="0.1"/>
    <path id="Tracé_32" data-name="Tracé 32" d="M446.219,757.079s-2.162-4.865-3.244-3.244-4.865,20.543-1.081,20.543,38.382,8.65,43.248,7.569,14.056.54,12.974-4.865-6.487-5.947-6.487-5.947-20-11.893-21.083-17.84-7.028-2.7-7.028-2.7v3.784S452.166,763.025,446.219,757.079Z" transform="translate(-256.776 -378.808)" fill="#2f2e41"/>
    <path id="Tracé_33" data-name="Tracé 33" d="M255.861,301.311s3.784,18.38-4.325,20,10.271,12.434,10.271,12.434l11.893,6.487,8.65-8.65s-7.839-15.948-1.892-27.841S255.861,301.311,255.861,301.311Z" transform="translate(-169.132 -171.174)" fill="#9f616a"/>
    <path id="Tracé_34" data-name="Tracé 34" d="M282.35,331.584l-8.65,8.65-11.893-6.487s-18.38-10.812-10.271-12.434c5.217-1.043,5.509-9.023,5.06-14.58a50.261,50.261,0,0,0-.735-5.422s30.544-9.46,24.6,2.433a20.74,20.74,0,0,0-1.86,5.817C276.777,320.248,282.35,331.584,282.35,331.584Z" transform="translate(-169.132 -171.174)" fill="#9f616a"/>
    <path id="Tracé_35" data-name="Tracé 35" d="M265.433,701.134v12.434h20.543L287.6,708.7l-2.162-12.974Z" transform="translate(-121.941 -319.62)" fill="#575a88"/>
    <path id="Tracé_36" data-name="Tracé 36" d="M209.292,530.829s0,31.9,12.974,32.976,59.466,7.028,59.466,7.028,2.7,52.978,7.568,70.277.541,18.38,4.865,19.462,22.705-2.7,22.164-6.487-2.7-99.47-2.7-99.47,4.865-20.543-60.006-30.273Z" transform="translate(-150.673 -275.274)" fill="#2f2e41"/>
    <path id="Tracé_37" data-name="Tracé 37" d="M363.183,777.9s-3.244-7.028-3.784-4.865-7.028,21.083-.54,22.705,27.03,10.271,40.545,9.731,15.137-1.081,15.137-1.081,3.784-5.406-1.081-8.649-24.867-22.164-25.949-24.327-9.19-3.784-9.19,0S366.967,782.765,363.183,777.9Z" transform="translate(-218.069 -387.736)" fill="#2f2e41"/>
    <path id="Tracé_38" data-name="Tracé 38" d="M285.889,303.743a20.74,20.74,0,0,0-1.86,5.817c-2.692,1.627-4.492,1.211-7.871,1.211-5.011,0-7.033-6.406-10.271-9.731-.254-3.087-4.6.27-4.6.27S291.836,291.85,285.889,303.743Z" transform="translate(-174.562 -171.174)" opacity="0.1"/>
    <circle id="Ellipse_8" data-name="Ellipse 8" cx="17.84" cy="17.84" r="17.84" transform="translate(82.405 103.648)" fill="#9f616a"/>
    <path id="Tracé_39" data-name="Tracé 39" d="M276.045,367.9s-2.7,19.461-4.325,26.489-3.784,39.464-4.865,43.788-7.568,5.406-20.543,3.784a24.381,24.381,0,0,0-2.454-.184c-7.99-.254-17.131,2.736-25.592,5.082a64.322,64.322,0,0,1-13.58,2.67c-6.163.281-7.968-6.552-7.758-13.947.2-6.882,2.152-14.261,3.973-16.867,3.281-4.692.054-46.821,1.265-60.714v-.005c.184-2.119.47-3.579.9-4.152,3.244-4.325,24.327-15.137,26.689-14.7s22.5,13.077,22.5,13.077c4.865,0,4.709-5.276,4.709-5.276s3.4,6.357,9.888,7.979S276.045,367.9,276.045,367.9Z" transform="translate(-144.986 -190.186)" fill="#575a88"/>
    <path id="Tracé_40" data-name="Tracé 40" d="M272.208,521.984s34.823,1.109,28.723,5.246-33.13,7.922-33.671,2.515S272.208,521.984,272.208,521.984Z" transform="translate(-177.287 -274.19)" fill="#9f616a"/>
    <path id="Tracé_41" data-name="Tracé 41" d="M243.871,457.491c.113,2.076-5.471,6.752-7.276,9.915-1,1.752-8.741-.557-18.315-4.833A187.8,187.8,0,0,1,196.942,451.3c.2-6.882,2.152-14.261,3.973-16.867,3.281-4.692.054-46.821,1.265-60.714v-.005a5.994,5.994,0,0,1,.9-.368h6.487c22.164,10.271-3.244,54.6-3.244,54.6s33.517,27.57,36.761,28.652A.972.972,0,0,1,243.871,457.491Z" transform="translate(-145 -205.904)" opacity="0.1"/>
    <path id="Tracé_42" data-name="Tracé 42" d="M194.25,367.342h-6.487s-5.947,1.622-10.812,12.434-22.705,44.329-7.028,57.3,49.194,28.111,51.357,24.327,9.731-9.731,6.487-10.812-36.761-28.652-36.761-28.652S216.414,377.613,194.25,367.342Z" transform="translate(-129.685 -203.147)" fill="#575a88"/>
    <path id="Tracé_43" data-name="Tracé 43" d="M261.708,257.363s.783-10.838,10.441-6.419,9.028-7.761,6.109-9.914-2.826-2.685-13.5-1.245-31.4,3.88-24.7,25.343,12.77,15.942,12.77,15.942-5.327-19.314.071-15.635l5.4,3.68,2.848-.6Z" transform="translate(-164.208 -144.177)" fill="#2f2e41"/>
    <path id="Tracé_44" data-name="Tracé 44" d="M743.127,546.646c0-9.758-72.51-17.668-161.956-17.668s-161.956,7.91-161.956,17.668c0,3.782,10.9,7.286,29.446,10.159V677.682H457.5V558.051c29.708,3.83,74.085,6.262,123.675,6.262,50,0,94.7-2.472,124.411-6.357V677.682h8.834V556.689C732.518,553.837,743.127,550.377,743.127,546.646Z" transform="translate(-247.113 -277.403)" fill="#3f3d56"/>
    <ellipse id="Ellipse_9" data-name="Ellipse 9" cx="32.976" cy="8.109" rx="32.976" ry="8.109" transform="translate(321.375 253.393)" fill="#f2f2f2"/>
    <ellipse id="Ellipse_10" data-name="Ellipse 10" cx="27.03" cy="6.647" rx="27.03" ry="6.647" transform="translate(327.321 254.855)" fill="#d0cde1"/>
    <ellipse id="Ellipse_11" data-name="Ellipse 11" cx="32.976" cy="8.109" rx="32.976" ry="8.109" transform="translate(198.659 259.88)" fill="#f2f2f2"/>
    <ellipse id="Ellipse_12" data-name="Ellipse 12" cx="27.03" cy="6.647" rx="27.03" ry="6.647" transform="translate(204.606 261.342)" fill="#d0cde1"/>
    <ellipse id="Ellipse_13" data-name="Ellipse 13" cx="15.721" cy="2.482" rx="15.721" ry="2.482" transform="translate(337.862 255.965)" fill="#9f616a"/>
    <ellipse id="Ellipse_14" data-name="Ellipse 14" cx="4.964" cy="2.689" rx="4.964" ry="2.689" transform="translate(340.242 252.138)" fill="#f6056e"/>
    <ellipse id="Ellipse_15" data-name="Ellipse 15" cx="4.964" cy="2.689" rx="4.964" ry="2.689" transform="translate(338.38 252.138)" fill="#f6056e"/>
    <ellipse id="Ellipse_16" data-name="Ellipse 16" cx="4.964" cy="2.689" rx="4.964" ry="2.689" transform="translate(360.099 252.759)" fill="#f6056e"/>
    <ellipse id="Ellipse_17" data-name="Ellipse 17" cx="4.964" cy="2.689" rx="4.964" ry="2.689" transform="translate(348.723 252.138)" fill="#f6056e"/>
    <ellipse id="Ellipse_18" data-name="Ellipse 18" cx="4.964" cy="2.689" rx="4.964" ry="2.689" transform="translate(357.203 252.138)" fill="#f6056e"/>
    <path id="Tracé_45" data-name="Tracé 45" d="M757,521.018q-13.458,4.567-30.2,0V520.6a12.336,12.336,0,0,1,11.715-12.328,77.466,77.466,0,0,1,7.987.01A11.147,11.147,0,0,1,757,519.437Z" transform="translate(-388.416 -267.845)" fill="#ffca4b"/>
    <path id="Tracé_46" data-name="Tracé 46" d="M752.68,547.64a99.221,99.221,0,0,1-19.943,0,6.371,6.371,0,0,1-5.749-6.331h31.441A6.372,6.372,0,0,1,752.68,547.64Z" transform="translate(-388.504 -283.068)" fill="#ff9800"/>
    <path id="Tracé_47" data-name="Tracé 47" d="M743.209,515.093a5.915,5.915,0,0,1-4.551,0A5.917,5.917,0,0,1,743.209,515.093Z" transform="translate(-393.866 -270.816)" fill="#707070"/>
    <path id="Tracé_48" data-name="Tracé 48" d="M751.627,518.537a5.915,5.915,0,0,1-4.551,0A5.916,5.916,0,0,1,751.627,518.537Z" transform="translate(-397.733 -272.398)" fill="#707070"/>
    <path id="Tracé_49" data-name="Tracé 49" d="M752.392,512.415a5.915,5.915,0,0,1-4.551,0A5.916,5.916,0,0,1,752.392,512.415Z" transform="translate(-398.085 -269.585)" fill="#707070"/>
    <path id="Tracé_50" data-name="Tracé 50" d="M768.081,512.415a5.915,5.915,0,0,1-4.551,0A5.917,5.917,0,0,1,768.081,512.415Z" transform="translate(-405.292 -269.585)" fill="#707070"/>
    <path id="Tracé_51" data-name="Tracé 51" d="M763.872,515.859a5.915,5.915,0,0,1-4.551,0A5.916,5.916,0,0,1,763.872,515.859Z" transform="translate(-403.358 -271.168)" fill="#707070"/>
    <ellipse id="Ellipse_19" data-name="Ellipse 19" cx="15.721" cy="2.482" rx="15.721" ry="2.482" transform="translate(215.688 262.452)" fill="#9f616a"/>
    <ellipse id="Ellipse_20" data-name="Ellipse 20" cx="4.964" cy="2.689" rx="4.964" ry="2.689" transform="translate(218.067 258.625)" fill="#6c63ff"/>
    <ellipse id="Ellipse_21" data-name="Ellipse 21" cx="4.964" cy="2.689" rx="4.964" ry="2.689" transform="translate(216.205 258.625)" fill="#6c63ff"/>
    <ellipse id="Ellipse_22" data-name="Ellipse 22" cx="4.964" cy="2.689" rx="4.964" ry="2.689" transform="translate(237.925 259.246)" fill="#6c63ff"/>
    <ellipse id="Ellipse_23" data-name="Ellipse 23" cx="4.964" cy="2.689" rx="4.964" ry="2.689" transform="translate(226.548 258.625)" fill="#6c63ff"/>
    <ellipse id="Ellipse_24" data-name="Ellipse 24" cx="4.964" cy="2.689" rx="4.964" ry="2.689" transform="translate(235.029 258.625)" fill="#6c63ff"/>
    <path id="Tracé_52" data-name="Tracé 52" d="M531,533.018q-13.458,4.567-30.2,0V532.6a12.336,12.336,0,0,1,11.715-12.328,77.5,77.5,0,0,1,7.987.01A11.147,11.147,0,0,1,531,531.437Z" transform="translate(-284.591 -273.358)" fill="#3f3d56"/>
    <path id="Tracé_53" data-name="Tracé 53" d="M526.68,559.64a99.232,99.232,0,0,1-19.943,0,6.372,6.372,0,0,1-5.749-6.331h31.441A6.372,6.372,0,0,1,526.68,559.64Z" transform="translate(-284.679 -288.581)" fill="#3f3d56"/>
    <path id="Tracé_54" data-name="Tracé 54" d="M517.209,527.093a5.918,5.918,0,0,1-4.551,0A5.916,5.916,0,0,1,517.209,527.093Z" transform="translate(-290.041 -276.329)" fill="#d0cde1"/>
    <path id="Tracé_55" data-name="Tracé 55" d="M525.627,530.537a5.917,5.917,0,0,1-4.551,0A5.916,5.916,0,0,1,525.627,530.537Z" transform="translate(-293.908 -277.911)" fill="#d0cde1"/>
    <path id="Tracé_56" data-name="Tracé 56" d="M526.393,524.415a5.915,5.915,0,0,1-4.551,0A5.917,5.917,0,0,1,526.393,524.415Z" transform="translate(-294.26 -275.098)" fill="#d0cde1"/>
    <path id="Tracé_57" data-name="Tracé 57" d="M542.081,524.415a5.916,5.916,0,0,1-4.551,0A5.918,5.918,0,0,1,542.081,524.415Z" transform="translate(-301.467 -275.098)" fill="#d0cde1"/>
    <path id="Tracé_58" data-name="Tracé 58" d="M537.872,527.859a5.915,5.915,0,0,1-4.551,0A5.917,5.917,0,0,1,537.872,527.859Z" transform="translate(-299.533 -276.68)" fill="#d0cde1"/>
    <path id="Tracé_59" data-name="Tracé 59" d="M795.267,543.277l.076,1.674.1,2.172s-9.975.564-11.984,2.687a1.237,1.237,0,0,0-.128.147l-4-.874-.01-1.968.162-.088.086-.045A36.365,36.365,0,0,1,795.267,543.277Z" transform="translate(-412.547 -283.972)" fill="#ff8700"/>
    <path id="Tracé_60" data-name="Tracé 60" d="M795.4,543.277l.076,1.674c-4.423.137-12.794,2.773-12.794,2.773l-3.064-.7a36.267,36.267,0,0,1,15.783-3.749Z" transform="translate(-412.685 -283.972)" fill="#ffca4b" opacity="0.1"/>
    <path id="Tracé_61" data-name="Tracé 61" d="M779.57,550.13l2.979.744.907,2.085a1.238,1.238,0,0,0-.128.147l-4-.875-.01-1.968.162-.089Z" transform="translate(-412.547 -287.121)" fill="#fff" opacity="0.1"/>
    <path id="Tracé_62" data-name="Tracé 62" d="M572.267,556.277l.076,1.674.1,2.172s-9.975.564-11.984,2.687a1.225,1.225,0,0,0-.128.147l-4-.874-.01-1.968.162-.089.086-.045A36.366,36.366,0,0,1,572.267,556.277Z" transform="translate(-310.1 -289.945)" fill="#6c63ff"/>
    <path id="Tracé_63" data-name="Tracé 63" d="M572.4,556.277l.076,1.674c-4.423.137-12.794,2.774-12.794,2.774l-3.064-.7A36.266,36.266,0,0,1,572.4,556.277Z" transform="translate(-310.238 -289.945)" opacity="0.1"/>
    <path id="Tracé_64" data-name="Tracé 64" d="M556.569,563.13l2.979.744.907,2.086a1.192,1.192,0,0,0-.128.147l-4-.875-.01-1.968.162-.089Z" transform="translate(-310.1 -293.093)" fill="#fff" opacity="0.1"/>
    <path id="Tracé_65" data-name="Tracé 65" d="M905.956,430.128a9.979,9.979,0,0,0-2.945-2.035V407.088a.929.929,0,0,0-.929-.929h-5.2a.929.929,0,0,0-.929.929v20.6a9.427,9.427,0,0,0-6.459,8.945V481.7a4.129,4.129,0,0,0,4.129,4.129h11.139a4.11,4.11,0,0,0,4.11-4.11V437.167A9.922,9.922,0,0,0,905.956,430.128Z" transform="translate(-463.161 -220.98)" fill="#3f3d56"/>
    <rect id="Rectangle_23" data-name="Rectangle 23" width="19.378" height="25.598" transform="translate(426.334 222.26)" fill="#ffca4b"/>
    <path id="Tracé_66" data-name="Tracé 66" d="M908.563,407.6h-.419v-.507a.929.929,0,0,0-.929-.929h-5.2a.929.929,0,0,0-.929.929v.507h-.419v2.153h.419v11h7.057v-11h.419Z" transform="translate(-468.294 -220.98)" fill="#ffca4b"/>
    <path id="Tracé_67" data-name="Tracé 67" d="M614.806,482.408c-.513-1.094-.918-1.869-1.059-2.135-8.7,2.146-14.5.333-15.417.012a51.152,51.152,0,0,0-4.371,11.427c-1.02,4.672-.428,7.8,1.76,9.309l.065.046.014.01c2.415,1.591,4.719,3,6.847,4.189q.43.239.811.445l.027.015.019.024a12.935,12.935,0,0,1,.815,1.149,4.522,4.522,0,0,1,.827,2.235v23.2l-.146,0c-5.548.113-8.983,1.054-8.983,1.86,0,.885,4.118,1.871,10.027,1.871s10.027-.986,10.027-1.871c0-.795-3.376-1.73-8.83-1.856l-.147,0,.137-21.464a9.464,9.464,0,0,1,.987-4.188c.11-.219.229-.432.352-.632.1-.161.2-.319.312-.467l.02-.027.03-.016q.41-.224.87-.485l.036-.02c2.014-1.138,4.184-2.471,6.451-3.965,2.023-1.334,2.728-4.03,2.094-8.014A42.783,42.783,0,0,0,614.806,482.408Z" transform="translate(-327.168 -255.028)" fill="#d0cde1"/>
    <path id="Tracé_68" data-name="Tracé 68" d="M616.292,510.508c-2.376,1.566-4.338,2.741-5.838,3.587h0a34.172,34.172,0,0,0-6.564.184c-1.538-.858-3.613-2.09-6.166-3.772l-.073-.05h0c-2.341-1.611-2.4-5.022-1.638-8.509a20.635,20.635,0,0,1,9.178,1.362c4.916,1.756,10.061.763,13.043-.14C618.723,506.247,618.425,509.1,616.292,510.508Z" transform="translate(-328.134 -264.946)" fill="#ffca4b"/>
    <circle id="Ellipse_25" data-name="Ellipse 25" cx="0.673" cy="0.673" r="0.673" transform="translate(273.357 234.394)" fill="#acacac"/>
    <circle id="Ellipse_26" data-name="Ellipse 26" cx="0.673" cy="0.673" r="0.673" transform="translate(271.473 240.584)" fill="#fff"/>
    <circle id="Ellipse_27" data-name="Ellipse 27" cx="0.404" cy="0.404" r="0.404" transform="translate(275.24 236.278)" fill="#acacac"/>
    <circle id="Ellipse_28" data-name="Ellipse 28" cx="0.404" cy="0.404" r="0.404" transform="translate(276.855 243.948)" fill="#fff"/>
    <circle id="Ellipse_29" data-name="Ellipse 29" cx="0.404" cy="0.404" r="0.404" transform="translate(274.029 244.351)" fill="#fff"/>
    <circle id="Ellipse_30" data-name="Ellipse 30" cx="0.404" cy="0.404" r="0.404" transform="translate(282.237 230.895)" fill="#acacac"/>
    <path id="Tracé_69" data-name="Tracé 69" d="M673.185,441.943c-.513-1.094-.918-1.869-1.059-2.135-8.7,2.146-14.5.333-15.417.012a51.135,51.135,0,0,0-4.371,11.427c-1.02,4.672-.428,7.8,1.76,9.309l.065.046.014.01c2.415,1.591,4.719,3,6.847,4.189q.43.239.811.445l.027.015.019.024a13,13,0,0,1,.815,1.149,4.522,4.522,0,0,1,.826,2.234v23.2l-.147,0c-5.548.113-8.983,1.054-8.983,1.86,0,.885,4.118,1.871,10.027,1.871s10.027-.986,10.027-1.871c0-.794-3.376-1.73-8.83-1.856l-.147,0,.137-21.464a9.467,9.467,0,0,1,.987-4.188c.11-.219.229-.432.352-.632.1-.161.2-.319.312-.467l.02-.027.03-.016q.41-.224.87-.485l.036-.02c2.014-1.138,4.184-2.471,6.451-3.965,2.024-1.334,2.728-4.03,2.094-8.014A42.827,42.827,0,0,0,673.185,441.943Z" transform="translate(-353.987 -236.439)" fill="#d0cde1"/>
    <path id="Tracé_70" data-name="Tracé 70" d="M674.67,470.042c-2.376,1.566-4.338,2.741-5.839,3.587h0a34.162,34.162,0,0,0-6.564.184c-1.538-.859-3.613-2.09-6.166-3.772l-.073-.05h0c-2.341-1.611-2.4-5.022-1.637-8.509a20.631,20.631,0,0,1,9.178,1.362c4.916,1.756,10.061.763,13.043-.14C677.1,465.781,676.8,468.636,674.67,470.042Z" transform="translate(-354.953 -246.356)" fill="#ffca4b"/>
    <circle id="Ellipse_31" data-name="Ellipse 31" cx="0.673" cy="0.673" r="0.673" transform="translate(304.916 212.519)" fill="#acacac"/>
    <circle id="Ellipse_32" data-name="Ellipse 32" cx="0.673" cy="0.673" r="0.673" transform="translate(303.032 218.708)" fill="#fff"/>
    <circle id="Ellipse_33" data-name="Ellipse 33" cx="0.404" cy="0.404" r="0.404" transform="translate(306.8 214.402)" fill="#acacac"/>
    <circle id="Ellipse_34" data-name="Ellipse 34" cx="0.404" cy="0.404" r="0.404" transform="translate(308.414 222.072)" fill="#fff"/>
    <circle id="Ellipse_35" data-name="Ellipse 35" cx="0.404" cy="0.404" r="0.404" transform="translate(305.589 222.476)" fill="#fff"/>
    <circle id="Ellipse_36" data-name="Ellipse 36" cx="0.404" cy="0.404" r="0.404" transform="translate(313.797 209.02)" fill="#acacac"/>
  </g>
</svg>
